<?xml version="1.0" encoding="utf-8"?>
<!-- Generator: Adobe Illustrator 26.0.2, SVG Export Plug-In . SVG Version: 6.00 Build 0)  -->
<svg version="1.1" id="Layer_1" xmlns="http://www.w3.org/2000/svg" xmlns:xlink="http://www.w3.org/1999/xlink" x="0px" y="0px"
	 viewBox="0 0 152 176" style="enable-background:new 0 0 152 176;" xml:space="preserve">
<style type="text/css">
	.st0{fill:none;}
	.st1{fill:#F9AB00;}
	.st2{fill:#E37400;}
</style>
<rect x="-20" y="-8" class="st0" width="192" height="192"/>
<g>
	<g>
		<path class="st1" d="M110,21v132c0,14.8,10.2,23,21,23c10,0,21-7,21-23V22c0-13.5-10-22-21-22S110,9.3,110,21z"/>
	</g>
	<g>
		<path class="st2" d="M55,88v65c0,14.8,10.2,23,21,23c10,0,21-7,21-23V89c0-13.5-10-22-21-22S55,76.3,55,88z"/>
	</g>
	<g>
		<circle class="st2" cx="21" cy="155" r="21"/>
	</g>
</g>
</svg>
