<svg xmlns="http://www.w3.org/2000/svg" xmlns:xlink="http://www.w3.org/1999/xlink" width="48" height="48" viewBox="0 0 48 48">
  <defs>
    <clipPath id="clip-path">
      <rect id="Rectangle_141" data-name="Rectangle 141" width="48" height="48" transform="translate(182 5749)" fill="#95c2e2"/>
    </clipPath>
    <clipPath id="clip-path-2">
      <rect id="Rectangle_667" data-name="Rectangle 667" width="48" height="48.001" fill="none"/>
    </clipPath>
  </defs>
  <g id="Mask_Group_8" data-name="Mask Group 8" transform="translate(-182 -5749)" clip-path="url(#clip-path)">
    <g id="Group_1815" data-name="Group 1815" transform="translate(182 5749)">
      <g id="Group_1814" data-name="Group 1814" clip-path="url(#clip-path-2)">
        <path id="Path_1147" data-name="Path 1147" d="M41.223,197.128a20.594,20.594,0,0,0,11.6,18.531l-9.821-26.91a20.511,20.511,0,0,0-1.782,8.379" transform="translate(-37.811 -173.128)" fill="#00749a"/>
        <path id="Path_1148" data-name="Path 1148" d="M113.242,60.772a10.837,10.837,0,0,0-1.7-5.678c-1.043-1.7-2.021-3.132-2.021-4.828a3.565,3.565,0,0,1,3.457-3.654c.091,0,.178.012.267.016A20.585,20.585,0,0,0,82.14,50.5c.483.014.939.024,1.325.024,2.153,0,5.487-.261,5.487-.261a.851.851,0,0,1,.132,1.7s-1.116.131-2.357.2l7.5,22.3,4.506-13.513-3.209-8.788c-1.109-.065-2.159-.2-2.159-.2a.851.851,0,0,1,.13-1.7s3.4.261,5.423.261c2.153,0,5.487-.261,5.487-.261a.851.851,0,0,1,.132,1.7s-1.118.131-2.356.2l7.44,22.133,2.053-6.863c.891-2.848,1.568-4.893,1.568-6.656" transform="translate(-75.342 -37.811)" fill="#00749a"/>
        <path id="Path_1149" data-name="Path 1149" d="M225.9,311.76l-6.177,17.95a20.59,20.59,0,0,0,12.653-.328,1.7,1.7,0,0,1-.147-.284Z" transform="translate(-201.542 -285.959)" fill="#00749a"/>
        <path id="Path_1150" data-name="Path 1150" d="M422.787,170.636a15.832,15.832,0,0,1,.139,2.117,19.422,19.422,0,0,1-1.566,7.375l-6.289,18.183a20.593,20.593,0,0,0,7.716-27.675" transform="translate(-380.72 -156.514)" fill="#00749a"/>
        <path id="Path_1151" data-name="Path 1151" d="M24,0A24,24,0,1,0,48,24,24.027,24.027,0,0,0,24,0m0,46.9A22.9,22.9,0,1,1,46.9,24,22.927,22.927,0,0,1,24,46.9" fill="#00749a"/>
      </g>
    </g>
  </g>
</svg>
